<svg width="526" height="630" viewBox="0 0 526 630" fill="none" xmlns="http://www.w3.org/2000/svg">
	<path d="M460.5 505.5V381.5H267.5H66.5V504.5L263.5 620L460.5 505.5Z" fill="#EBDECD"/>
	<mask id="mask0_207_1141" style="mask-type:alpha" maskUnits="userSpaceOnUse" x="66" y="381" width="395" height="239">
		<path d="M460.5 505.5V381.5H267.5H66.5V504.5L263.5 620L460.5 505.5Z" fill="#D9D9D9"/>
	</mask>
	<g mask="url(#mask0_207_1141)">
		<ellipse cx="263" cy="407" rx="263" ry="31" fill="#3B887B"/>
	</g>
	<path d="M67 505L125 472M125 472L263.5 228L399.5 472M125 472L263.5 620L399.5 472M125 472H399.5M125 472L96 372M399.5 472L460.5 505.5M399.5 472L430 370.25" stroke="#253C3B" stroke-width="13"/>
	<ellipse cx="263" cy="390" rx="263" ry="31" fill="#EBDECD"/>
	<ellipse cx="263" cy="377" rx="204" ry="20" fill="#253C3B"/>
	<path d="M143 238.5C121.251 237.491 102.91 249.545 97 270.5C91.5 290 92.5001 312.5 109 325C122.405 335.155 145.5 332 145.5 332C145.5 332 137.435 337.538 131.5 339C125.054 340.588 114.5 339 114.5 339C114.5 339 111.191 350.141 110.5 357.5C109.806 364.89 111 376.5 111 376.5C111 376.5 150.489 379.819 175.5 384C199.941 388.086 237.5 397.5 237.5 397.5H289.5C289.5 397.5 326.995 387.219 351.5 383C375.513 378.866 413.5 376 413.5 376C413.5 376 413.457 364.672 412.5 357.5C411.523 350.173 408.5 339 408.5 339C408.5 339 398.182 340.817 392 339C386.023 337.243 378.5 330.5 378.5 330.5C378.5 330.5 386.638 333.035 392 333C399.724 332.949 404.467 331.622 411 327.5C417.077 323.666 419.791 320.154 423.5 314C428.318 306.006 429.431 300.316 430 291C430.591 281.324 429.955 275.351 426 266.5C422.972 259.723 420.304 256.192 415 251C409.466 245.583 405.871 242.375 398.5 240C391.613 237.781 387.352 237.976 380 239C374.042 239.83 370.573 240.236 365 242.5C357.825 245.414 353.925 247.973 348.5 253.5C342.424 259.689 342.781 266.593 336 272C329.53 277.159 317 279.5 317 279.5C317 279.5 327.98 268.748 334 261C340.413 252.745 340.653 245.407 348.5 238.5C355.579 232.268 370 227.5 370 227.5C370 227.5 366.188 194.795 355.5 177.5C344.812 160.205 336.865 127.793 334 114.5C331.81 104.338 331.5 88 331.5 88C331.5 88 335.861 103.058 342.5 110C348.61 116.39 353.688 118.489 362 121.5C373.07 125.51 380.351 126.211 392 124.5C402.333 122.982 408.05 120.384 417 115C425.893 109.65 431.943 106.563 437 97.5C440.923 90.4695 446 73.5 446 73.5C446 73.5 419.556 86.8333 405.5 83.5C396.492 81.3637 391.987 77.9453 384.5 72.5C373.5 64.5 368.027 59.064 348.5 42.5C336.66 32.4569 319.287 8.73199 304.5 3.99999C298.109 1.95475 294.169 0.76055 287.5 1.49999C280.617 2.26315 277.022 4.57908 271 7.99999C255.303 16.9173 248.11 22.3938 237.5 37C219.787 61.3844 212.879 74.5123 198.5 101C186.252 123.564 180.574 137.678 171 161.5C161.673 184.705 152.5 228.5 152.5 228.5C152.5 228.5 166.471 231.433 173 236C180.855 241.494 180.685 248.879 186.5 256.5C193.878 266.169 207.5 279.5 207.5 279.5C207.5 279.5 194.257 276.392 187.5 271C180.721 265.59 181.034 259.73 175 253.5C165.398 243.586 156.787 239.14 143 238.5Z" fill="#EBDECD"/>
	<mask id="mask1_207_1141" style="mask-type:alpha" maskUnits="userSpaceOnUse" x="93" y="1" width="353" height="397">
		<path d="M143 238.5C121.251 237.491 102.91 249.545 97 270.5C91.5 290 92.5001 312.5 109 325C122.405 335.155 145.5 332 145.5 332C145.5 332 137.435 337.538 131.5 339C125.054 340.588 114.5 339 114.5 339C114.5 339 111.191 350.141 110.5 357.5C109.806 364.89 111 376.5 111 376.5C111 376.5 150.489 379.819 175.5 384C199.941 388.086 237.5 397.5 237.5 397.5H289.5C289.5 397.5 326.995 387.219 351.5 383C375.513 378.866 413.5 376 413.5 376C413.5 376 413.457 364.672 412.5 357.5C411.523 350.173 408.5 339 408.5 339C408.5 339 398.182 340.817 392 339C386.023 337.243 378.5 330.5 378.5 330.5C378.5 330.5 386.638 333.035 392 333C399.724 332.949 404.467 331.622 411 327.5C417.077 323.666 419.791 320.154 423.5 314C428.318 306.006 429.431 300.316 430 291C430.591 281.324 429.955 275.351 426 266.5C422.972 259.723 420.304 256.192 415 251C409.466 245.583 405.871 242.375 398.5 240C391.613 237.781 387.352 237.976 380 239C374.042 239.83 370.573 240.236 365 242.5C357.825 245.414 353.925 247.973 348.5 253.5C342.424 259.689 342.781 266.593 336 272C329.53 277.159 317 279.5 317 279.5C317 279.5 327.98 268.748 334 261C340.413 252.745 340.653 245.407 348.5 238.5C355.579 232.268 370 227.5 370 227.5C370 227.5 366.188 194.795 355.5 177.5C344.812 160.205 336.865 127.793 334 114.5C331.81 104.338 331.5 88 331.5 88C331.5 88 335.861 103.058 342.5 110C348.61 116.39 353.688 118.489 362 121.5C373.07 125.51 380.351 126.211 392 124.5C402.333 122.982 408.05 120.384 417 115C425.893 109.65 431.943 106.563 437 97.5C440.923 90.4695 446 73.5 446 73.5C446 73.5 419.556 86.8333 405.5 83.5C396.492 81.3637 391.987 77.9453 384.5 72.5C373.5 64.5 368.027 59.064 348.5 42.5C336.66 32.4569 319.287 8.73199 304.5 3.99999C298.109 1.95475 294.169 0.76055 287.5 1.49999C280.617 2.26315 277.022 4.57908 271 7.99999C255.303 16.9173 248.11 22.3938 237.5 37C219.787 61.3844 212.879 74.5123 198.5 101C186.252 123.564 180.574 137.678 171 161.5C161.673 184.705 152.5 228.5 152.5 228.5C152.5 228.5 166.471 231.433 173 236C180.855 241.494 180.685 248.879 186.5 256.5C193.878 266.169 207.5 279.5 207.5 279.5C207.5 279.5 194.257 276.392 187.5 271C180.721 265.59 181.034 259.73 175 253.5C165.398 243.586 156.787 239.14 143 238.5Z" fill="#D9D9D9"/>
	</mask>
	<g mask="url(#mask1_207_1141)">
		<path d="M131.5 343.5C135.609 340.314 145.5 332 145.5 332L141 332.5L138.5 333.5L126 334L115.5 337.5L111 341L108 347C108 347 113.136 350.93 118 349.5C123.688 347.828 126.814 347.133 131.5 343.5Z" fill="#3B887B"/>
	</g>
	<mask id="mask2_207_1141" style="mask-type:alpha" maskUnits="userSpaceOnUse" x="93" y="1" width="353" height="397">
		<path d="M143 238.5C121.251 237.491 102.91 249.545 97 270.5C91.5 290 92.5001 312.5 109 325C122.405 335.155 145.5 332 145.5 332C145.5 332 137.435 337.538 131.5 339C125.054 340.588 114.5 339 114.5 339C114.5 339 111.191 350.141 110.5 357.5C109.806 364.89 111 376.5 111 376.5C111 376.5 150.489 379.819 175.5 384C199.941 388.086 237.5 397.5 237.5 397.5H289.5C289.5 397.5 326.995 387.219 351.5 383C375.513 378.866 413.5 376 413.5 376C413.5 376 413.457 364.672 412.5 357.5C411.523 350.173 408.5 339 408.5 339C408.5 339 398.182 340.817 392 339C386.023 337.243 378.5 330.5 378.5 330.5C378.5 330.5 386.638 333.035 392 333C399.724 332.949 404.467 331.622 411 327.5C417.077 323.666 419.791 320.154 423.5 314C428.318 306.006 429.431 300.316 430 291C430.591 281.324 429.955 275.351 426 266.5C422.972 259.723 420.304 256.192 415 251C409.466 245.583 405.871 242.375 398.5 240C391.613 237.781 387.352 237.976 380 239C374.042 239.83 370.573 240.236 365 242.5C357.825 245.414 353.925 247.973 348.5 253.5C342.424 259.689 342.781 266.593 336 272C329.53 277.159 317 279.5 317 279.5C317 279.5 327.98 268.748 334 261C340.413 252.745 340.653 245.407 348.5 238.5C355.579 232.268 370 227.5 370 227.5C370 227.5 366.188 194.795 355.5 177.5C344.812 160.205 336.865 127.793 334 114.5C331.81 104.338 331.5 88 331.5 88C331.5 88 335.861 103.058 342.5 110C348.61 116.39 353.688 118.489 362 121.5C373.07 125.51 380.351 126.211 392 124.5C402.333 122.982 408.05 120.384 417 115C425.893 109.65 431.943 106.563 437 97.5C440.923 90.4695 446 73.5 446 73.5C446 73.5 419.556 86.8333 405.5 83.5C396.492 81.3637 391.987 77.9453 384.5 72.5C373.5 64.5 368.027 59.064 348.5 42.5C336.66 32.4569 319.287 8.73199 304.5 3.99999C298.109 1.95475 294.169 0.76055 287.5 1.49999C280.617 2.26315 277.022 4.57908 271 7.99999C255.303 16.9173 248.11 22.3938 237.5 37C219.787 61.3844 212.879 74.5123 198.5 101C186.252 123.564 180.574 137.678 171 161.5C161.673 184.705 152.5 228.5 152.5 228.5C152.5 228.5 166.471 231.433 173 236C180.855 241.494 180.685 248.879 186.5 256.5C193.878 266.169 207.5 279.5 207.5 279.5C207.5 279.5 194.257 276.392 187.5 271C180.721 265.59 181.034 259.73 175 253.5C165.398 243.586 156.787 239.14 143 238.5Z" fill="#D9D9D9"/>
	</mask>
	<g mask="url(#mask2_207_1141)">
		<path d="M391.5 343.22C387.391 340.035 378.5 330.5 378.5 330.5L382 332.22L384.5 333.22L397 333.72L407.5 337.22L412 340.72L415 346.72C415 346.72 409.864 350.65 405 349.22C399.312 347.548 396.186 346.853 391.5 343.22Z" fill="#3B887B"/>
	</g>
	<mask id="mask3_207_1141" style="mask-type:alpha" maskUnits="userSpaceOnUse" x="93" y="1" width="353" height="397">
		<path d="M143 238.5C121.251 237.491 102.91 249.545 97 270.5C91.5 290 92.5001 312.5 109 325C122.405 335.155 145.5 332 145.5 332C145.5 332 137.435 337.538 131.5 339C125.054 340.588 114.5 339 114.5 339C114.5 339 111.191 350.141 110.5 357.5C109.806 364.89 111 376.5 111 376.5C111 376.5 150.489 379.819 175.5 384C199.941 388.086 237.5 397.5 237.5 397.5H289.5C289.5 397.5 326.995 387.219 351.5 383C375.513 378.866 413.5 376 413.5 376C413.5 376 413.457 364.672 412.5 357.5C411.523 350.173 408.5 339 408.5 339C408.5 339 398.182 340.817 392 339C386.023 337.243 378.5 330.5 378.5 330.5C378.5 330.5 386.638 333.035 392 333C399.724 332.949 404.467 331.622 411 327.5C417.077 323.666 419.791 320.154 423.5 314C428.318 306.006 429.431 300.316 430 291C430.591 281.324 429.955 275.351 426 266.5C422.972 259.723 420.304 256.192 415 251C409.466 245.583 405.871 242.375 398.5 240C391.613 237.781 387.352 237.976 380 239C374.042 239.83 370.573 240.236 365 242.5C357.825 245.414 353.925 247.973 348.5 253.5C342.424 259.689 342.781 266.593 336 272C329.53 277.159 317 279.5 317 279.5C317 279.5 327.98 268.748 334 261C340.413 252.745 340.653 245.407 348.5 238.5C355.579 232.268 370 227.5 370 227.5C370 227.5 366.188 194.795 355.5 177.5C349.888 168.419 344.172 165.21 338 156.5C331.32 147.073 323 131 323 131C323 131 330.622 134.121 335 137C339.973 140.27 346.5 147 346.5 147C346.5 147 336.865 127.793 334 114.5C331.81 104.338 331.5 88 331.5 88C331.5 88 335.861 103.058 342.5 110C348.61 116.39 353.688 118.489 362 121.5C373.07 125.51 380.351 126.211 392 124.5C402.333 122.982 408.05 120.384 417 115C425.893 109.65 431.943 106.563 437 97.5C440.923 90.4695 446 73.5 446 73.5C446 73.5 419.556 86.8333 405.5 83.5C396.492 81.3637 391.987 77.9453 384.5 72.5C373.5 64.5 368.027 59.064 348.5 42.5C336.66 32.4569 319.287 8.73199 304.5 3.99999C298.109 1.95475 294.169 0.76055 287.5 1.49999C280.617 2.26315 277.022 4.57908 271 7.99999C255.303 16.9173 252.61 29.3938 242 44C224.287 68.3844 216.379 83.5123 202 110C189.751 132.564 178.074 146.678 168.5 170.5C159.173 193.705 152.5 228.5 152.5 228.5C152.5 228.5 166.471 231.433 173 236C180.855 241.494 180.685 248.879 186.5 256.5C193.878 266.169 207.5 279.5 207.5 279.5C207.5 279.5 194.257 276.392 187.5 271C180.721 265.59 181.034 259.73 175 253.5C165.398 243.586 156.787 239.14 143 238.5Z" fill="#D9D9D9"/>
	</mask>
	<g mask="url(#mask3_207_1141)">
		<path d="M183 209.5C172.557 211.619 144.5 218.5 144.5 218.5L148.5 228.5C148.5 228.5 152.661 232.854 157 234.5C161.082 236.049 161.226 234.611 164.5 237.5C167.223 239.903 170.533 239.446 172.5 242.5C174.441 245.514 178.147 249.932 180 253C181.68 255.782 183.5 259 183.5 259C183.5 259 193.474 256.398 200 255.5C207.94 254.407 220.5 254.5 220.5 254.5L233.5 259H244.5H285H299L305.5 256C305.5 256 316.193 255.857 323 256.5C329.296 257.095 339 259 339 259C339 259 347.818 246.938 355 240.5C361.958 234.263 373.5 226.5 373.5 226.5L373 218.5C363.042 215.181 352.958 212.819 343 209.5C343 209.5 331.186 207.035 323.5 206.5C317.072 206.052 307 206.5 307 206.5H297.5H287L251.5 206.5L229.5 206.5H215.5C215.5 206.5 206.033 206 200 206.5C193.282 207.056 189.607 208.159 183 209.5Z" fill="#3B887B"/>
	</g>
	<mask id="mask4_207_1141" style="mask-type:alpha" maskUnits="userSpaceOnUse" x="148" y="206" width="226" height="53">
		<mask id="mask5_207_1141" style="mask-type:alpha" maskUnits="userSpaceOnUse" x="93" y="1" width="353" height="397">
			<path d="M143 238.5C121.251 237.491 102.91 249.545 97 270.5C91.5 290 92.5001 312.5 109 325C122.405 335.155 145.5 332 145.5 332C145.5 332 137.435 337.538 131.5 339C125.054 340.588 114.5 339 114.5 339C114.5 339 111.191 350.141 110.5 357.5C109.806 364.89 111 376.5 111 376.5C111 376.5 150.489 379.819 175.5 384C199.941 388.086 237.5 397.5 237.5 397.5H289.5C289.5 397.5 326.995 387.219 351.5 383C375.513 378.866 413.5 376 413.5 376C413.5 376 413.457 364.672 412.5 357.5C411.523 350.173 408.5 339 408.5 339C408.5 339 398.182 340.817 392 339C386.023 337.243 378.5 330.5 378.5 330.5C378.5 330.5 386.638 333.035 392 333C399.724 332.949 404.467 331.622 411 327.5C417.077 323.666 419.791 320.154 423.5 314C428.318 306.006 429.431 300.316 430 291C430.591 281.324 429.955 275.351 426 266.5C422.972 259.723 420.304 256.192 415 251C409.466 245.583 405.871 242.375 398.5 240C391.613 237.781 387.352 237.976 380 239C374.042 239.83 370.573 240.236 365 242.5C357.825 245.414 353.925 247.973 348.5 253.5C342.424 259.689 342.781 266.593 336 272C329.53 277.159 317 279.5 317 279.5C317 279.5 327.98 268.748 334 261C340.413 252.745 340.653 245.407 348.5 238.5C355.579 232.268 370 227.5 370 227.5C370 227.5 366.188 194.795 355.5 177.5C349.888 168.419 344.172 165.21 338 156.5C331.32 147.073 323 131 323 131C323 131 330.622 134.121 335 137C339.973 140.27 346.5 147 346.5 147C346.5 147 336.865 127.793 334 114.5C331.81 104.338 331.5 88 331.5 88C331.5 88 335.861 103.058 342.5 110C348.61 116.39 353.688 118.489 362 121.5C373.07 125.51 380.351 126.211 392 124.5C402.333 122.982 408.05 120.384 417 115C425.893 109.65 431.943 106.563 437 97.5C440.923 90.4695 446 73.5 446 73.5C446 73.5 419.556 86.8333 405.5 83.5C396.492 81.3637 391.987 77.9453 384.5 72.5C373.5 64.5 368.027 59.064 348.5 42.5C336.66 32.4569 319.287 8.73199 304.5 3.99999C298.109 1.95475 294.169 0.76055 287.5 1.49999C280.617 2.26315 277.022 4.57908 271 7.99999C255.303 16.9173 252.61 29.3938 242 44C224.287 68.3844 216.379 83.5123 202 110C189.751 132.564 182.574 145.178 173 169C163.673 192.205 152.5 228.5 152.5 228.5C152.5 228.5 166.471 231.433 173 236C180.855 241.494 180.685 248.879 186.5 256.5C193.878 266.169 207.5 279.5 207.5 279.5C207.5 279.5 194.257 276.392 187.5 271C180.721 265.59 181.034 259.73 175 253.5C165.398 243.586 156.787 239.14 143 238.5Z" fill="#D9D9D9"/>
		</mask>
		<g mask="url(#mask5_207_1141)">
			<path d="M183 209.5C172.557 211.619 150 216.5 150 216.5L148.5 228.5C148.5 228.5 152.661 232.854 157 234.5C161.082 236.049 161.226 234.611 164.5 237.5C167.223 239.903 170.533 239.446 172.5 242.5C174.441 245.514 178.147 249.932 180 253C181.68 255.782 183.5 259 183.5 259C183.5 259 193.474 256.398 200 255.5C207.94 254.407 220.5 254.5 220.5 254.5L233.5 259H244.5H285H299L305.5 256C305.5 256 316.193 255.857 323 256.5C329.296 257.095 339 259 339 259C339 259 347.818 246.938 355 240.5C361.958 234.263 373.5 226.5 373.5 226.5L373 218.5C363.042 215.181 352.958 212.819 343 209.5C343 209.5 331.186 207.035 323.5 206.5C317.072 206.052 307 206.5 307 206.5H297.5H287L251.5 206.5L229.5 206.5H215.5C215.5 206.5 206.033 206 200 206.5C193.282 207.056 189.607 208.159 183 209.5Z" fill="#A34141"/>
		</g>
	</mask>
	<g mask="url(#mask4_207_1141)">
		<path d="M209.5 264.5L201 203H322L315 264.5H209.5Z" fill="#253C3B"/>
	</g>
	<rect x="216" y="191" width="91" height="75" rx="16" fill="#253C3B"/>
	<rect x="225" y="203" width="72" height="51" rx="8" fill="#EBDECD"/>
	<rect x="239" y="215" width="44" height="26" rx="6" fill="#253C3B"/>
	<mask id="mask6_207_1141" style="mask-type:alpha" maskUnits="userSpaceOnUse" x="94" y="0" width="353" height="397">
		<path d="M143.002 237.22C121.253 236.211 102.912 248.266 97.0022 269.22C91.5022 288.72 92.5023 311.22 109.002 323.72C122.407 333.876 145.502 330.72 145.502 330.72C145.502 330.72 137.437 336.258 131.502 337.72C125.056 339.309 114.502 337.72 114.502 337.72C114.502 337.72 111.193 348.861 110.502 356.22C109.809 363.61 111.002 375.22 111.002 375.22C111.002 375.22 150.491 378.539 175.502 382.72C199.943 386.806 237.502 396.22 237.502 396.22H289.502C289.502 396.22 326.997 385.939 351.502 381.72C375.515 377.586 413.502 374.72 413.502 374.72C413.502 374.72 413.459 363.392 412.502 356.22C411.525 348.894 408.502 337.72 408.502 337.72C408.502 337.72 398.184 339.537 392.002 337.72C386.025 335.964 378.502 329.22 378.502 329.22C378.502 329.22 386.641 331.756 392.002 331.72C399.727 331.669 404.469 330.342 411.002 326.22C417.079 322.386 419.793 318.874 423.502 312.72C428.321 304.726 429.433 299.037 430.002 289.72C430.593 280.044 429.958 274.071 426.002 265.22C422.974 258.444 420.306 254.913 415.002 249.72C409.468 244.303 405.873 241.095 398.502 238.72C391.616 236.501 387.354 236.696 380.002 237.72C374.045 238.55 370.575 238.957 365.002 241.22C357.827 244.135 353.927 246.694 348.502 252.22C342.426 258.41 342.783 265.313 336.002 270.72C329.532 275.879 317.002 278.22 317.002 278.22C317.002 278.22 327.982 267.468 334.002 259.72C340.416 251.466 340.656 244.127 348.502 237.22C355.581 230.989 370.002 226.22 370.002 226.22C370.002 226.22 366.19 193.515 355.502 176.22C349.89 167.139 344.174 163.931 338.002 155.22C331.322 145.793 323.002 129.72 323.002 129.72C323.002 129.72 330.624 132.842 335.002 135.72C339.975 138.99 346.502 145.72 346.502 145.72C346.502 145.72 336.867 126.514 334.002 113.22C331.812 103.059 331.5 89 331.5 89C331.5 89 335.361 102.558 342 109.5C348.11 115.89 349 116.5 362 121.5C372.989 125.727 380.351 126.211 392 124.5C402.333 122.982 409.05 119.884 418 114.5C426.893 109.15 432.443 105.563 437.5 96.5C441.423 89.4695 446.002 72.2203 446.002 72.2203C446.002 72.2203 419.558 85.5536 405.502 82.2203C396.494 80.084 391.99 76.6656 384.502 71.2203C373.502 63.2203 368.029 57.7843 348.502 41.2203C336.663 31.1773 319.289 7.45233 304.502 2.72032C298.111 0.675091 294.172 -0.519113 287.502 0.220324C280.619 0.983485 277.024 3.29941 271.002 6.72032C255.305 15.6376 252.612 28.1141 242.002 42.7203C224.289 67.1048 216.381 82.2326 202.002 108.72C189.754 131.284 182.576 143.899 173.002 167.72C163.675 190.926 152.502 227.22 152.502 227.22C152.502 227.22 166.473 230.154 173.002 234.72C180.857 240.214 180.687 247.6 186.502 255.22C193.88 264.89 207.502 278.22 207.502 278.22C207.502 278.22 194.259 275.112 187.502 269.72C180.723 264.31 181.036 258.451 175.002 252.22C165.401 242.306 156.789 237.86 143.002 237.22Z" fill="#D9D9D9"/>
	</mask>
	<g mask="url(#mask6_207_1141)">
		<path d="M404.5 130L430.5 106C430.5 106 413.012 115.879 405.5 117C396.019 118.415 387 116.602 381 115.5C369.643 113.413 355.5 106 345.5 95.5C337.948 87.5704 333.5 63.5 333.5 63.5C333.5 63.5 330 75.5 331.5 88C332.349 95.0756 333.5 100 333.5 100L341.5 115.5L369 131L404.5 130Z" fill="#3B887B"/>
	</g>
	<path d="M133.5 356.5C133.5 356.5 145.878 360.343 154 362C196.003 370.57 220.132 348.758 263 349C303.93 349.231 326.731 369.331 367 362C375.713 360.414 389 356.5 389 356.5" stroke="#253C3B" stroke-width="8" stroke-linecap="round"/>
	<circle cx="134" cy="283" r="30" fill="#253C3B"/>
	<path d="M120 269C120 269 123.1 266.261 125.911 265.192C130.35 263.504 139 264.104 139 264.104" stroke="#EBDECD" stroke-width="7" stroke-linecap="round"/>
	<circle cx="389" cy="283" r="30" fill="#253C3B"/>
	<path d="M377 269C377 269 380.1 266.261 382.911 265.192C387.35 263.504 396 264.104 396 264.104" stroke="#EBDECD" stroke-width="7" stroke-linecap="round"/>
	<ellipse cx="227.348" cy="312.278" rx="10.5" ry="5.5" transform="rotate(44.4365 227.348 312.278)" fill="#253C3B"/>
	<ellipse cx="295.348" cy="312.278" rx="10.5" ry="5.5" transform="rotate(-44.44 295.348 312.278)" fill="#253C3B"/>
	<path d="M227.188 510.125L243.438 497.938L262.266 509.266C262.37 510.776 262.422 512.039 262.422 513.055C262.422 517.326 261.25 520.971 258.906 523.992C256.562 527.013 251.315 530.828 243.164 535.438C239.492 537.521 236.901 539.201 235.391 540.477C233.906 541.727 232.565 543.263 231.367 545.086C234.544 543.68 237.305 542.703 239.648 542.156C242.018 541.583 244.349 541.297 246.641 541.297C248.594 541.297 250.586 541.44 252.617 541.727C254.674 542.013 256.237 542.299 257.305 542.586L263.359 544.539L256.562 552C252.5 550.594 249.727 549.747 248.242 549.461C245.898 548.966 243.685 548.719 241.602 548.719C237.643 548.719 233.333 549.617 228.672 551.414C227.682 551.805 227.109 552 226.953 552C226.797 552 226.68 551.948 226.602 551.844C226.497 551.714 226.445 551.518 226.445 551.258C226.445 550.008 226.875 548.484 227.734 546.688C228.88 544.24 230.534 541.831 232.695 539.461C234.232 537.742 236.732 535.477 240.195 532.664C243.659 529.852 246.055 527.716 247.383 526.258C249.232 524.201 250.651 522.052 251.641 519.812C252.656 517.573 253.164 515.19 253.164 512.664C253.164 508.888 251.758 505.776 248.945 503.328L232.734 515.75L227.188 510.125ZM285 497.938C290.911 499.969 295.508 503.224 298.789 507.703C302.07 512.156 303.711 517.404 303.711 523.445C303.711 529.383 302.174 534.786 299.102 539.656C296.055 544.5 291.914 548.615 286.68 552C282.956 551.115 279.57 549.448 276.523 547C273.503 544.552 271.185 541.505 269.57 537.859C267.982 534.214 267.188 530.424 267.188 526.492C267.188 520.867 268.815 515.398 272.07 510.086C275.326 504.773 279.635 500.724 285 497.938ZM278.203 505.125C274.609 509.214 272.812 514.135 272.812 519.891C272.812 523.953 273.685 527.781 275.43 531.375C277.174 534.969 279.661 537.938 282.891 540.281C286.146 542.625 289.466 544.044 292.852 544.539C294.727 541.961 296.055 539.552 296.836 537.312C297.643 535.047 298.047 532.547 298.047 529.812C298.047 526.062 297.279 522.495 295.742 519.109C294.232 515.698 291.953 512.82 288.906 510.477C285.859 508.107 282.292 506.323 278.203 505.125Z" fill="#253C3B"/>
</svg>
