<svg width="67" height="67" viewBox="0 0 67 67" fill="none" xmlns="http://www.w3.org/2000/svg">
	<circle cx="33.5" cy="33.5" r="33.5" fill="#EBDECD"/>
	<path d="M27.5201 52.1867C27.0134 52.1867 26.5068 52 26.1068 51.6L9.92009 35.4133C9.14675 34.64 9.14675 33.36 9.92009 32.5867L26.1068 16.4C26.8801 15.6267 28.1601 15.6267 28.9334 16.4C29.7068 17.1733 29.7068 18.4533 28.9334 19.2267L14.1601 34L28.9334 48.7733C29.7068 49.5467 29.7068 50.8267 28.9334 51.6C28.5601 52 28.0268 52.1867 27.5201 52.1867Z" fill="#253C3B"/>
	<path d="M56.6666 36H11.7866C10.6933 36 9.78662 35.0933 9.78662 34C9.78662 32.9067 10.6933 32 11.7866 32H56.6666C57.76 32 58.6666 32.9067 58.6666 34C58.6666 35.0933 57.76 36 56.6666 36Z" fill="#253C3B"/>
</svg>
