<svg width="48" height="48" viewBox="0 0 48 48" fill="none" xmlns="http://www.w3.org/2000/svg">
<path d="M24 44.16C23.4 44.16 22.8 44.02 22.3 43.74C18.56 41.7 11.98 39.54 7.86 39L7.28 38.92C4.66 38.6 2.5 36.14 2.5 33.48V9.32001C2.5 7.74002 3.12 6.30002 4.26 5.26002C5.4 4.22002 6.88 3.72002 8.44 3.86002C12.84 4.20002 19.48 6.40002 23.24 8.76002L23.72 9.04002C23.86 9.12002 24.16 9.12002 24.28 9.06002L24.6 8.86001C28.36 6.50002 35 4.26002 39.42 3.88002C39.46 3.88002 39.62 3.88002 39.66 3.88002C41.12 3.74002 42.62 4.26002 43.74 5.30002C44.88 6.34002 45.5 7.78001 45.5 9.36001V33.5C45.5 36.18 43.34 38.62 40.7 38.94L40.04 39.02C35.92 39.56 29.32 41.74 25.66 43.76C25.18 44.04 24.6 44.16 24 44.16ZM7.96 6.84002C7.32 6.84002 6.74 7.06002 6.28 7.48002C5.78 7.94002 5.5 8.60001 5.5 9.32001V33.48C5.5 34.66 6.52 35.8 7.66 35.96L8.26 36.04C12.76 36.64 19.66 38.9 23.66 41.08C23.84 41.16 24.1 41.18 24.2 41.14C28.2 38.92 35.14 36.64 39.66 36.04L40.34 35.96C41.48 35.82 42.5 34.66 42.5 33.48V9.34002C42.5 8.60002 42.22 7.96002 41.72 7.48002C41.2 7.02002 40.54 6.80002 39.8 6.84002C39.76 6.84002 39.6 6.84002 39.56 6.84002C35.74 7.18002 29.58 9.24002 26.22 11.34L25.9 11.56C24.8 12.24 23.24 12.24 22.18 11.58L21.7 11.3C18.28 9.20002 12.12 7.16002 8.2 6.84002C8.12 6.84002 8.04 6.84002 7.96 6.84002Z" fill="#EBDECD" fill-opacity="0.8"/>
<path d="M24 42.48C23.18 42.48 22.5 41.8 22.5 40.98V10.98C22.5 10.16 23.18 9.47998 24 9.47998C24.82 9.47998 25.5 10.16 25.5 10.98V40.98C25.5 41.82 24.82 42.48 24 42.48Z" fill="#EBDECD" fill-opacity="0.8"/>
<path d="M15.5 18.48H11C10.18 18.48 9.5 17.8 9.5 16.98C9.5 16.16 10.18 15.48 11 15.48H15.5C16.32 15.48 17 16.16 17 16.98C17 17.8 16.32 18.48 15.5 18.48Z" fill="#EBDECD" fill-opacity="0.8"/>
<path d="M17 24.48H11C10.18 24.48 9.5 23.8 9.5 22.98C9.5 22.16 10.18 21.48 11 21.48H17C17.82 21.48 18.5 22.16 18.5 22.98C18.5 23.8 17.82 24.48 17 24.48Z" fill="#EBDECD" fill-opacity="0.8"/>
</svg>
