<svg width="67" height="67" viewBox="0 0 67 67" fill="none" xmlns="http://www.w3.org/2000/svg">
<path d="M33.5002 63.5104C16.9456 63.5104 3.48975 50.0546 3.48975 33.5C3.48975 16.9454 16.9456 3.48958 33.5002 3.48958C50.0547 3.48958 63.5106 16.9454 63.5106 33.5C63.5106 50.0546 50.0547 63.5104 33.5002 63.5104ZM33.5002 7.67708C19.2627 7.67708 7.67725 19.2625 7.67725 33.5C7.67725 47.7375 19.2627 59.3229 33.5002 59.3229C47.7377 59.3229 59.3231 47.7375 59.3231 33.5C59.3231 19.2625 47.7377 7.67708 33.5002 7.67708Z" fill="#EBDECD"/>
<path d="M25.5995 43.4942C25.069 43.4942 24.5386 43.2988 24.1199 42.88C23.3103 42.0704 23.3103 40.7304 24.1199 39.9208L39.9207 24.12C40.7303 23.3104 42.0703 23.3104 42.8799 24.12C43.6895 24.9296 43.6895 26.2696 42.8799 27.0792L27.079 42.88C26.6882 43.2988 26.1299 43.4942 25.5995 43.4942Z" fill="#EBDECD"/>
<path d="M41.4003 43.4942C40.8699 43.4942 40.3395 43.2988 39.9207 42.88L24.1199 27.0792C23.3103 26.2696 23.3103 24.9296 24.1199 24.12C24.9295 23.3104 26.2695 23.3104 27.079 24.12L42.8799 39.9208C43.6895 40.7304 43.6895 42.0704 42.8799 42.88C42.4611 43.2988 41.9307 43.4942 41.4003 43.4942Z" fill="#EBDECD"/>
</svg>
