<svg width="48" height="48" viewBox="0 0 48 48" fill="none" xmlns="http://www.w3.org/2000/svg">
<path d="M30 45.5H18C7.14 45.5 2.5 40.86 2.5 30V18C2.5 7.14 7.14 2.5 18 2.5H22C22.82 2.5 23.5 3.18 23.5 4C23.5 4.82 22.82 5.5 22 5.5H18C8.78 5.5 5.5 8.78 5.5 18V30C5.5 39.22 8.78 42.5 18 42.5H30C39.22 42.5 42.5 39.22 42.5 30V26C42.5 25.18 43.18 24.5 44 24.5C44.82 24.5 45.5 25.18 45.5 26V30C45.5 40.86 40.86 45.5 30 45.5Z" fill="#253C3B"/>
<path d="M16.9999 35.38C15.7799 35.38 14.6599 34.94 13.8399 34.14C12.8599 33.16 12.4399 31.74 12.6599 30.24L13.5199 24.22C13.6799 23.06 14.4399 21.56 15.2599 20.74L31.0199 4.98C34.9999 0.999995 39.0399 0.999995 43.0199 4.98C45.1999 7.16 46.1799 9.38 45.9799 11.6C45.7999 13.4 44.8399 15.16 43.0199 16.96L27.2599 32.72C26.4399 33.54 24.9399 34.3 23.7799 34.46L17.7599 35.32C17.4999 35.38 17.2399 35.38 16.9999 35.38ZM33.1399 7.1L17.3799 22.86C16.9999 23.24 16.5599 24.12 16.4799 24.64L15.6199 30.66C15.5399 31.24 15.6599 31.72 15.9599 32.02C16.2599 32.32 16.7399 32.44 17.3199 32.36L23.3399 31.5C23.8599 31.42 24.7599 30.98 25.1199 30.6L40.8799 14.84C42.1799 13.54 42.8599 12.38 42.9599 11.3C43.0799 10 42.3999 8.62 40.8799 7.08C37.6799 3.88 35.4799 4.78 33.1399 7.1Z" fill="#253C3B"/>
<path d="M39.7001 19.66C39.5601 19.66 39.4201 19.64 39.3001 19.6C34.0401 18.12 29.8601 13.94 28.3801 8.67999C28.1601 7.87999 28.6201 7.05999 29.4201 6.81999C30.2201 6.59999 31.0401 7.05999 31.2601 7.85999C32.4601 12.12 35.8401 15.5 40.1001 16.7C40.9001 16.92 41.3601 17.76 41.1401 18.56C40.9601 19.24 40.3601 19.66 39.7001 19.66Z" fill="#253C3B"/>
</svg>
