<svg width="61" height="60" viewBox="0 0 61 60" fill="none" xmlns="http://www.w3.org/2000/svg">
<path d="M30.5149 56.8H14.9008C8.04762 56.8 3.25293 52.025 3.25293 45.2V25.775C3.25293 18.95 8.04762 14.175 14.9008 14.175H24.5152C27.5778 14.175 30.5902 15.425 32.7491 17.575L38.7487 23.525C40.9327 25.7 42.1627 28.675 42.1627 31.725V45.2C42.1627 52.025 37.368 56.8 30.5149 56.8ZM14.9008 17.925C10.1061 17.925 7.01839 21 7.01839 25.775V45.2C7.01839 49.975 10.1061 53.05 14.9008 53.05H30.5149C35.3096 53.05 38.3973 49.975 38.3973 45.2V31.725C38.3973 29.65 37.5438 27.65 36.0878 26.175L30.0881 20.225C28.6071 18.75 26.5737 17.925 24.5152 17.925H14.9008Z" fill="#253C3B"/>
<path d="M45.5769 45.7001H40.2801C39.2509 45.7001 38.3974 44.8501 38.3974 43.8251V31.725C38.3974 29.65 37.5439 27.65 36.0879 26.175L30.0883 20.225C28.6072 18.75 26.5739 17.925 24.5154 17.925H20.1977C19.1684 17.925 18.3149 17.075 18.3149 16.05V14.65C18.3149 7.82505 23.1096 3.05005 29.9628 3.05005H39.5773C42.6398 3.05005 45.6522 4.30005 47.8111 6.45005L53.8107 12.425C56.0198 14.625 57.2247 17.525 57.2247 20.625V34.1C57.2247 40.925 52.43 45.7001 45.5769 45.7001ZM42.1629 41.9501H45.5769C50.3716 41.9501 53.4593 38.875 53.4593 34.1V20.625C53.4593 18.525 52.6309 16.55 51.1498 15.0751L45.1501 9.10005C43.6942 7.65005 41.6608 6.80005 39.5773 6.80005H29.9628C25.3438 6.80005 22.2812 9.67505 22.0804 14.175H24.5154C27.578 14.175 30.5904 15.425 32.7492 17.5751L38.7489 23.525C40.9328 25.7 42.1629 28.675 42.1629 31.725V41.9501Z" fill="#253C3B"/>
</svg>
