<svg width="48" height="48" viewBox="0 0 48 48" fill="none" xmlns="http://www.w3.org/2000/svg">
	<path d="M24.1201 34.5C23.3001 34.5 22.6201 33.82 22.6201 33V23C22.6201 22.18 23.3001 21.5 24.1201 21.5C24.9401 21.5 25.6201 22.18 25.6201 23V33C25.6201 33.82 24.9401 34.5 24.1201 34.5Z" fill="#253C3B"/>
	<path d="M29 29.5H19C18.18 29.5 17.5 28.82 17.5 28C17.5 27.18 18.18 26.5 19 26.5H29C29.82 26.5 30.5 27.18 30.5 28C30.5 28.82 29.82 29.5 29 29.5Z" fill="#253C3B"/>
	<path d="M34 45.5H14C5.18 45.5 2.5 42.82 2.5 34V14C2.5 5.18 5.18 2.5 14 2.5H17C20.5 2.5 21.6 3.64 23 5.5L26 9.5C26.66 10.38 26.76 10.5 28 10.5H34C42.82 10.5 45.5 13.18 45.5 22V34C45.5 42.82 42.82 45.5 34 45.5ZM14 5.5C6.86 5.5 5.5 6.86 5.5 14V34C5.5 41.14 6.86 42.5 14 42.5H34C41.14 42.5 42.5 41.14 42.5 34V22C42.5 14.86 41.14 13.5 34 13.5H28C25.44 13.5 24.6 12.62 23.6 11.3L20.6 7.3C19.56 5.92 19.26 5.5 17 5.5H14Z" fill="#253C3B"/>
</svg>
