<svg width="48" height="48" viewBox="0 0 48 48" fill="none" xmlns="http://www.w3.org/2000/svg">
<path d="M44 45.5H4C3.18 45.5 2.5 44.82 2.5 44C2.5 43.18 3.18 42.5 4 42.5H44C44.82 42.5 45.5 43.18 45.5 44C45.5 44.82 44.82 45.5 44 45.5Z" fill="#EBDECD" fill-opacity="0.8"/>
<path d="M7.40039 44H4.40039L4.50039 19.9399C4.50039 18.2399 5.28039 16.66 6.62039 15.62L20.6204 4.71994C22.6004 3.17994 25.3804 3.17994 27.3804 4.71994L41.3804 15.5999C42.7004 16.6399 43.5004 18.2599 43.5004 19.9399V44H40.5004V19.9599C40.5004 19.1999 40.1404 18.46 39.5404 17.98L25.5404 7.09995C24.6404 6.39995 23.3804 6.39995 22.4604 7.09995L8.46039 18C7.86039 18.46 7.50039 19.1999 7.50039 19.9599L7.40039 44Z" fill="#EBDECD" fill-opacity="0.8"/>
<path d="M29 45.5H19C18.18 45.5 17.5 44.82 17.5 44V37C17.5 34.52 19.52 32.5 22 32.5H26C28.48 32.5 30.5 34.52 30.5 37V44C30.5 44.82 29.82 45.5 29 45.5ZM20.5 42.5H27.5V37C27.5 36.18 26.82 35.5 26 35.5H22C21.18 35.5 20.5 36.18 20.5 37V42.5Z" fill="#EBDECD" fill-opacity="0.8"/>
<path d="M19 29H15C13.08 29 11.5 27.42 11.5 25.5V22.5C11.5 20.58 13.08 19 15 19H19C20.92 19 22.5 20.58 22.5 22.5V25.5C22.5 27.42 20.92 29 19 29ZM15 22C14.72 22 14.5 22.22 14.5 22.5V25.5C14.5 25.78 14.72 26 15 26H19C19.28 26 19.5 25.78 19.5 25.5V22.5C19.5 22.22 19.28 22 19 22H15Z" fill="#EBDECD" fill-opacity="0.8"/>
<path d="M33 29H29C27.08 29 25.5 27.42 25.5 25.5V22.5C25.5 20.58 27.08 19 29 19H33C34.92 19 36.5 20.58 36.5 22.5V25.5C36.5 27.42 34.92 29 33 29ZM29 22C28.72 22 28.5 22.22 28.5 22.5V25.5C28.5 25.78 28.72 26 29 26H33C33.28 26 33.5 25.78 33.5 25.5V22.5C33.5 22.22 33.28 22 33 22H29Z" fill="#EBDECD" fill-opacity="0.8"/>
<path d="M38.0002 15.5C37.1802 15.5 36.5002 14.84 36.5002 14.02L36.4602 9.5H29.1602C28.3402 9.5 27.6602 8.82 27.6602 8C27.6602 7.18 28.3402 6.5 29.1602 6.5H37.9602C38.7802 6.5 39.4602 7.15998 39.4602 7.97998L39.5201 13.98C39.5001 14.82 38.8402 15.5 38.0002 15.5C38.0002 15.5 38.0202 15.5 38.0002 15.5Z" fill="#EBDECD" fill-opacity="0.8"/>
</svg>
