<svg width="61" height="60" viewBox="0 0 61 60" fill="none" xmlns="http://www.w3.org/2000/svg">
<path d="M22.6911 53.75C18.524 53.75 14.3318 52.1751 11.1437 49C4.7926 42.6501 4.7926 32.35 11.1437 26.025C11.8717 25.3 13.0766 25.3 13.8046 26.025C14.5326 26.75 14.5326 27.9501 13.8046 28.6751C8.90951 33.5501 8.90951 41.4751 13.8046 46.3501C18.6997 51.2251 26.6574 51.2251 31.5525 46.3501C33.9122 44.0001 35.2175 40.85 35.2175 37.5001C35.2175 34.175 33.9122 31.025 31.5525 28.65C30.8245 27.925 30.8245 26.725 31.5525 26C32.2805 25.275 33.4854 25.275 34.2134 26C37.3011 29.075 38.983 33.1501 38.983 37.5001C38.983 41.85 37.276 45.9251 34.2134 49C31.0504 52.1751 26.8833 53.75 22.6911 53.75Z" fill="#253C3B"/>
<path d="M47.995 35.4C47.5181 35.4 47.0411 35.225 46.6646 34.85C45.9366 34.125 45.9366 32.925 46.6646 32.2C51.8107 27.075 51.8107 18.75 46.6646 13.65C41.5184 8.52498 33.1591 8.52498 28.0381 13.65C25.5529 16.125 24.1722 19.425 24.1722 22.925C24.1722 26.425 25.5529 29.725 28.0381 32.2C28.7661 32.925 28.7661 34.125 28.0381 34.85C27.3101 35.575 26.1051 35.575 25.3772 34.85C22.1891 31.675 20.4067 27.425 20.4067 22.925C20.4067 18.425 22.164 14.175 25.3772 11C31.9793 4.42498 42.7234 4.42498 49.3506 11C55.9527 17.575 55.9527 28.3 49.3506 34.875C48.9741 35.225 48.472 35.4 47.995 35.4Z" fill="#253C3B"/>
</svg>
