<svg width="61" height="60" viewBox="0 0 61 60" fill="none" xmlns="http://www.w3.org/2000/svg">
<path d="M36.6527 56.05C35.8243 56.05 35.0461 55.5 34.8202 54.65C34.5441 53.65 35.1466 52.625 36.1758 52.35C46.3676 49.675 53.4718 40.475 53.4718 29.975C53.4718 17.225 43.054 6.85 30.2514 6.85C19.3818 6.85 12.2525 13.175 8.91382 17H16.2941C17.3234 17 18.1769 17.85 18.1769 18.875C18.1769 19.9 17.3485 20.775 16.2941 20.775H5.17346C5.04794 20.775 4.82202 20.75 4.64629 20.7C4.42037 20.625 4.21954 20.525 4.04382 20.4C3.81789 20.25 3.64217 20.05 3.51666 19.825C3.39114 19.6 3.29073 19.325 3.26562 19.05C3.26562 18.975 3.26562 18.925 3.26562 18.85V7.5C3.26562 6.475 4.11913 5.625 5.14836 5.625C6.17758 5.625 7.03109 6.475 7.03109 7.5V13.475C11.1229 9.1 18.8295 3.125 30.2514 3.125C45.1376 3.125 57.2373 15.175 57.2373 30C57.2373 42.2 48.9784 52.9 37.1297 56C36.9791 56.025 36.8034 56.05 36.6527 56.05Z" fill="#253C3B"/>
<path d="M28.4691 56.825C28.4189 56.825 28.3687 56.8 28.3436 56.8C25.6325 56.625 22.9716 56.025 20.4612 55.05C19.7333 54.775 19.2312 54.05 19.2563 53.275C19.2563 53.05 19.3065 52.825 19.3818 52.625C19.7584 51.675 20.888 51.2 21.8168 51.55C24.0008 52.4 26.2852 52.9 28.5946 53.075C29.5737 53.125 30.3519 53.975 30.3519 54.975L30.3268 55.075C30.2766 56.05 29.4482 56.825 28.4691 56.825ZM14.6373 51.45C14.2106 51.45 13.8089 51.3 13.4575 51.05C11.3488 49.35 9.49119 47.375 7.98501 45.175C7.75908 44.85 7.63356 44.5 7.63356 44.125C7.63356 43.5 7.9348 42.925 8.46197 42.575C9.29037 42 10.4953 42.225 11.0727 43.025C11.0727 43.05 11.0727 43.05 11.0727 43.05C11.0978 43.075 11.1229 43.125 11.148 43.15C12.4534 45.025 14.0349 46.7 15.8172 48.1C16.2439 48.45 16.5201 48.975 16.5201 49.55C16.5201 49.975 16.3945 50.4 16.1184 50.75C15.7419 51.2 15.2147 51.45 14.6373 51.45ZM6.25289 39.25C5.42449 39.25 4.6965 38.725 4.47057 37.95C3.66727 35.375 3.26562 32.7 3.26562 30V29.975C3.29073 28.95 4.11913 28.125 5.14836 28.125C6.17758 28.125 7.03109 28.975 7.03109 30C7.03109 32.35 7.38253 34.65 8.06032 36.825C8.11052 37.025 8.13562 37.2 8.13562 37.4C8.13562 38.2 7.60846 38.925 6.80516 39.175C6.62944 39.225 6.45372 39.25 6.25289 39.25Z" fill="#253C3B"/>
</svg>
