<svg width="56" height="56" viewBox="0 0 56 56" fill="none" xmlns="http://www.w3.org/2000/svg">
<path d="M29.1668 50.7503C42.3502 50.7503 53.0835 40.017 53.0835 26.8337C53.0835 13.6503 42.3502 2.91699 29.1668 2.91699C15.9835 2.91699 5.25016 13.6503 5.25016 26.8337C5.25016 40.017 15.9835 50.7503 29.1668 50.7503ZM29.1668 6.41699C40.4368 6.41699 49.5835 15.587 49.5835 26.8337C49.5835 38.0803 40.4368 47.2503 29.1668 47.2503C17.8968 47.2503 8.75016 38.0803 8.75016 26.8337C8.75016 15.587 17.8968 6.41699 29.1668 6.41699Z" fill="#253C3B"/>
<path d="M4.6668 53.0837C5.11014 53.0837 5.55347 52.9204 5.90347 52.5704L10.5701 47.9037C11.2468 47.227 11.2468 46.107 10.5701 45.4304C9.89347 44.7537 8.77347 44.7537 8.0968 45.4304L3.43013 50.097C2.75347 50.7737 2.75347 51.8937 3.43013 52.5704C3.78013 52.9204 4.22347 53.0837 4.6668 53.0837Z" fill="#253C3B"/>
</svg>
