<svg width="48" height="48" viewBox="0 0 48 48" fill="none" xmlns="http://www.w3.org/2000/svg">
<path d="M24 45.26C22.66 45.26 21.3 44.96 20.24 44.34L9.23998 38C4.75998 34.98 4.47998 34.52 4.47998 29.78V18.22C4.47998 13.48 4.73998 13.02 9.13998 10.04L20.22 3.63998C22.32 2.41998 25.62 2.41998 27.72 3.63998L38.76 9.99998C43.24 13.02 43.52 13.48 43.52 18.22V29.76C43.52 34.5 43.26 34.96 38.86 37.94L27.78 44.34C26.7 44.96 25.34 45.26 24 45.26ZM24 5.73998C23.16 5.73998 22.34 5.89998 21.76 6.23998L10.76 12.6C7.49998 14.8 7.49998 14.8 7.49998 18.22V29.76C7.49998 33.18 7.49998 33.18 10.84 35.44L21.76 41.74C22.94 42.42 25.08 42.42 26.26 41.74L37.26 35.38C40.5 33.18 40.5 33.18 40.5 29.76V18.22C40.5 14.8 40.5 14.8 37.16 12.54L26.24 6.23998C25.66 5.89998 24.84 5.73998 24 5.73998Z" fill="#253C3B"/>
<path d="M24 31.5C19.86 31.5 16.5 28.14 16.5 24C16.5 19.86 19.86 16.5 24 16.5C28.14 16.5 31.5 19.86 31.5 24C31.5 28.14 28.14 31.5 24 31.5ZM24 19.5C21.52 19.5 19.5 21.52 19.5 24C19.5 26.48 21.52 28.5 24 28.5C26.48 28.5 28.5 26.48 28.5 24C28.5 21.52 26.48 19.5 24 19.5Z" fill="#253C3B"/>
</svg>
