<svg width="61" height="60" viewBox="0 0 61 60" fill="none" xmlns="http://www.w3.org/2000/svg">
<path d="M20.1975 55.7997C19.4946 55.7997 18.7666 55.6248 18.1139 55.2748C16.683 54.5248 15.8045 53.0247 15.8045 51.4247V47.8749C8.22334 47.0999 3.25293 41.5497 3.25293 33.5997V18.5999C3.25293 9.99985 9.05174 4.22485 17.6872 4.22485H42.7903C51.4258 4.22485 57.2246 9.99985 57.2246 18.5999V33.5997C57.2246 42.1997 51.4258 47.9747 42.7903 47.9747H33.3264L22.6324 55.0749C21.9045 55.5499 21.051 55.7997 20.1975 55.7997ZM17.6872 7.94983C11.2106 7.94983 7.01839 12.1248 7.01839 18.5748V33.575C7.01839 40.025 11.2106 44.2 17.6872 44.2C18.7164 44.2 19.5699 45.05 19.5699 46.075V51.4C19.5699 51.725 19.7708 51.8749 19.8963 51.9499C20.0218 52.0249 20.2729 52.0999 20.549 51.9249L31.7199 44.525C32.0211 44.325 32.3976 44.2 32.7742 44.2H42.8154C49.292 44.2 53.4842 40.025 53.4842 33.575V18.5748C53.4842 12.1248 49.292 7.94983 42.8154 7.94983H17.6872Z" fill="#253C3B"/>
<path d="M30.2383 30.2749C29.209 30.2749 28.3555 29.4249 28.3555 28.3999V27.875C28.3555 24.975 30.4892 23.55 31.2925 23C32.2214 22.375 32.5226 21.95 32.5226 21.3C32.5226 20.05 31.4934 19.0249 30.2383 19.0249C28.9831 19.0249 27.9539 20.05 27.9539 21.3C27.9539 22.325 27.1004 23.175 26.0712 23.175C25.042 23.175 24.1885 22.325 24.1885 21.3C24.1885 17.975 26.8995 15.2749 30.2383 15.2749C33.577 15.2749 36.288 17.975 36.288 21.3C36.288 24.15 34.1795 25.5749 33.4013 26.0999C32.4222 26.7499 32.121 27.175 32.121 27.875V28.3999C32.121 29.4499 31.2675 30.2749 30.2383 30.2749Z" fill="#253C3B"/>
<path d="M30.2392 36.5C29.1848 36.5 28.3564 35.65 28.3564 34.625C28.3564 33.6 29.21 32.75 30.2392 32.75C31.2684 32.75 32.1219 33.6 32.1219 34.625C32.1219 35.65 31.2935 36.5 30.2392 36.5Z" fill="#253C3B"/>
</svg>
