<svg width="213" height="213" viewBox="0 0 213 213" fill="none" xmlns="http://www.w3.org/2000/svg">
<path d="M106.5 201.906C59.995 201.906 22.1875 164.099 22.1875 117.594C22.1875 71.0888 59.995 33.2812 106.5 33.2812C153.005 33.2812 190.812 71.0888 190.812 117.594C190.812 121.232 187.795 124.25 184.156 124.25C180.518 124.25 177.5 121.232 177.5 117.594C177.5 78.455 145.639 46.5938 106.5 46.5938C67.3613 46.5938 35.5 78.455 35.5 117.594C35.5 156.732 67.3613 188.594 106.5 188.594C110.139 188.594 113.156 191.611 113.156 195.25C113.156 198.889 110.139 201.906 106.5 201.906Z" fill="#253C3B"/>
<path d="M106.5 122.031C102.861 122.031 99.8438 119.014 99.8438 115.375V71C99.8438 67.3613 102.861 64.3438 106.5 64.3438C110.139 64.3438 113.156 67.3613 113.156 71V115.375C113.156 119.014 110.139 122.031 106.5 122.031Z" fill="#253C3B"/>
<path d="M133.125 24.4062H79.875C76.2363 24.4062 73.2188 21.3887 73.2188 17.75C73.2188 14.1113 76.2363 11.0938 79.875 11.0938H133.125C136.764 11.0938 139.781 14.1113 139.781 17.75C139.781 21.3887 136.764 24.4062 133.125 24.4062Z" fill="#253C3B"/>
<path d="M168.625 193.031C164.986 193.031 161.969 190.014 161.969 186.375V150.875C161.969 147.236 164.986 144.219 168.625 144.219C172.264 144.219 175.281 147.236 175.281 150.875V186.375C175.281 190.014 172.264 193.031 168.625 193.031Z" fill="#253C3B"/>
<path d="M142 193.031C138.361 193.031 135.344 190.014 135.344 186.375V150.875C135.344 147.236 138.361 144.219 142 144.219C145.639 144.219 148.656 147.236 148.656 150.875V186.375C148.656 190.014 145.639 193.031 142 193.031Z" fill="#253C3B"/>
</svg>
