<svg width="48" height="47" viewBox="0 0 48 47" fill="none" xmlns="http://www.w3.org/2000/svg">
<path d="M42.0001 13.1796C41.9601 13.1796 41.9001 13.1796 41.8401 13.1796C31.2601 12.1416 20.7001 11.75 10.2401 12.7879L6.16008 13.1796C5.32008 13.2579 4.58008 12.6704 4.50008 11.8479C4.42008 11.0254 5.02008 10.3204 5.84008 10.2421L9.92008 9.85039C20.5601 8.79289 31.3401 9.20414 42.1401 10.2421C42.9601 10.3204 43.5601 11.045 43.4801 11.8479C43.4201 12.6116 42.7601 13.1796 42.0001 13.1796Z" fill="#253C3B"/>
<path d="M17 11.2017C16.92 11.2017 16.84 11.2017 16.74 11.1821C15.94 11.045 15.38 10.2813 15.52 9.49794L15.96 6.93252C16.28 5.05252 16.72 2.44794 21.38 2.44794H26.62C31.3 2.44794 31.74 5.15044 32.04 6.9521L32.48 9.49794C32.62 10.3009 32.06 11.0646 31.26 11.1821C30.44 11.3192 29.66 10.7709 29.54 9.98752L29.1 7.44169C28.82 5.73794 28.76 5.40502 26.64 5.40502H21.4C19.28 5.40502 19.24 5.67919 18.94 7.4221L18.48 9.96794C18.36 10.6925 17.72 11.2017 17 11.2017Z" fill="#253C3B"/>
<path d="M30.42 44.5521H17.58C10.6 44.5521 10.32 40.7725 10.1 37.7175L8.80004 17.9971C8.74004 17.1942 9.38004 16.4892 10.2 16.4304C11.04 16.3913 11.74 16.9984 11.8 17.8013L13.1 37.5217C13.32 40.4984 13.4 41.6146 17.58 41.6146H30.42C34.62 41.6146 34.7 40.4984 34.9 37.5217L36.2 17.8013C36.26 16.9984 36.98 16.3913 37.8 16.4304C38.62 16.4892 39.26 17.1746 39.2 17.9971L37.9 37.7175C37.68 40.7725 37.4 44.5521 30.42 44.5521Z" fill="#253C3B"/>
<path d="M27.3199 33.7812H20.6599C19.8399 33.7812 19.1599 33.1154 19.1599 32.3125C19.1599 31.5096 19.8399 30.8438 20.6599 30.8438H27.3199C28.1399 30.8438 28.8199 31.5096 28.8199 32.3125C28.8199 33.1154 28.1399 33.7812 27.3199 33.7812Z" fill="#253C3B"/>
<path d="M29 25.9479H19C18.18 25.9479 17.5 25.2821 17.5 24.4792C17.5 23.6763 18.18 23.0104 19 23.0104H29C29.82 23.0104 30.5 23.6763 30.5 24.4792C30.5 25.2821 29.82 25.9479 29 25.9479Z" fill="#253C3B"/>
</svg>
