<svg width="857" height="857" viewBox="0 0 857 857" fill="none" xmlns="http://www.w3.org/2000/svg">
	<rect width="857" height="857" fill="#253C3B"/>
	<path d="M623.5 657.5V533.5H430.5H229.5V656.5L426.5 772L623.5 657.5Z" fill="#EBDECD"/>
	<mask id="mask0_199_832" style="mask-type:alpha" maskUnits="userSpaceOnUse" x="229" y="533" width="395" height="239">
		<path d="M623.5 657.5V533.5H430.5H229.5V656.5L426.5 772L623.5 657.5Z" fill="#D9D9D9"/>
	</mask>
	<g mask="url(#mask0_199_832)">
		<ellipse cx="426" cy="559" rx="263" ry="31" fill="#3B887B"/>
	</g>
	<path d="M230 657L288 624M288 624L426.5 380L562.5 624M288 624L426.5 772L562.5 624M288 624H562.5M288 624L259 524M562.5 624L623.5 657.5M562.5 624L593 522.25" stroke="#253C3B" stroke-width="13"/>
	<ellipse cx="426" cy="542" rx="263" ry="31" fill="#EBDECD"/>
	<ellipse cx="426" cy="529" rx="204" ry="20" fill="#253C3B"/>
	<path d="M306 390.5C284.251 389.491 265.91 401.545 260 422.5C254.5 442 255.5 464.5 272 477C285.405 487.155 308.5 484 308.5 484C308.5 484 300.435 489.538 294.5 491C288.054 492.588 277.5 491 277.5 491C277.5 491 274.191 502.141 273.5 509.5C272.806 516.89 274 528.5 274 528.5C274 528.5 313.489 531.819 338.5 536C362.941 540.086 400.5 549.5 400.5 549.5H452.5C452.5 549.5 489.995 539.219 514.5 535C538.513 530.866 576.5 528 576.5 528C576.5 528 576.457 516.672 575.5 509.5C574.523 502.173 571.5 491 571.5 491C571.5 491 561.182 492.817 555 491C549.023 489.243 541.5 482.5 541.5 482.5C541.5 482.5 549.638 485.035 555 485C562.724 484.949 567.467 483.622 574 479.5C580.077 475.666 582.791 472.154 586.5 466C591.318 458.006 592.431 452.316 593 443C593.591 433.324 592.955 427.351 589 418.5C585.972 411.723 583.304 408.192 578 403C572.466 397.583 568.871 394.375 561.5 392C554.613 389.781 550.352 389.976 543 391C537.042 391.83 533.573 392.236 528 394.5C520.825 397.414 516.925 399.973 511.5 405.5C505.424 411.689 505.781 418.593 499 424C492.53 429.159 480 431.5 480 431.5C480 431.5 490.98 420.748 497 413C503.413 404.745 503.653 397.407 511.5 390.5C518.579 384.268 533 379.5 533 379.5C533 379.5 529.188 346.795 518.5 329.5C507.812 312.205 499.865 279.793 497 266.5C494.81 256.338 494.5 240 494.5 240C494.5 240 498.861 255.058 505.5 262C511.61 268.39 516.688 270.489 525 273.5C536.07 277.51 543.351 278.211 555 276.5C565.333 274.982 571.05 272.384 580 267C588.893 261.65 594.943 258.563 600 249.5C603.923 242.469 609 225.5 609 225.5C609 225.5 582.556 238.833 568.5 235.5C559.492 233.364 554.987 229.945 547.5 224.5C536.5 216.5 531.027 211.064 511.5 194.5C499.66 184.457 482.287 160.732 467.5 156C461.109 153.955 457.169 152.761 450.5 153.5C443.617 154.263 440.022 156.579 434 160C418.303 168.917 411.11 174.394 400.5 189C382.787 213.384 375.879 226.512 361.5 253C349.252 275.564 343.574 289.678 334 313.5C324.673 336.705 315.5 380.5 315.5 380.5C315.5 380.5 329.471 383.433 336 388C343.855 393.494 343.685 400.879 349.5 408.5C356.878 418.169 370.5 431.5 370.5 431.5C370.5 431.5 357.257 428.392 350.5 423C343.721 417.59 344.034 411.73 338 405.5C328.398 395.586 319.787 391.14 306 390.5Z" fill="#EBDECD"/>
	<mask id="mask1_199_832" style="mask-type:alpha" maskUnits="userSpaceOnUse" x="256" y="153" width="353" height="397">
		<path d="M306 390.5C284.251 389.491 265.91 401.545 260 422.5C254.5 442 255.5 464.5 272 477C285.405 487.155 308.5 484 308.5 484C308.5 484 300.435 489.538 294.5 491C288.054 492.588 277.5 491 277.5 491C277.5 491 274.191 502.141 273.5 509.5C272.806 516.89 274 528.5 274 528.5C274 528.5 313.489 531.819 338.5 536C362.941 540.086 400.5 549.5 400.5 549.5H452.5C452.5 549.5 489.995 539.219 514.5 535C538.513 530.866 576.5 528 576.5 528C576.5 528 576.457 516.672 575.5 509.5C574.523 502.173 571.5 491 571.5 491C571.5 491 561.182 492.817 555 491C549.023 489.243 541.5 482.5 541.5 482.5C541.5 482.5 549.638 485.035 555 485C562.724 484.949 567.467 483.622 574 479.5C580.077 475.666 582.791 472.154 586.5 466C591.318 458.006 592.431 452.316 593 443C593.591 433.324 592.955 427.351 589 418.5C585.972 411.723 583.304 408.192 578 403C572.466 397.583 568.871 394.375 561.5 392C554.613 389.781 550.352 389.976 543 391C537.042 391.83 533.573 392.236 528 394.5C520.825 397.414 516.925 399.973 511.5 405.5C505.424 411.689 505.781 418.593 499 424C492.53 429.159 480 431.5 480 431.5C480 431.5 490.98 420.748 497 413C503.413 404.745 503.653 397.407 511.5 390.5C518.579 384.268 533 379.5 533 379.5C533 379.5 529.188 346.795 518.5 329.5C507.812 312.205 499.865 279.793 497 266.5C494.81 256.338 494.5 240 494.5 240C494.5 240 498.861 255.058 505.5 262C511.61 268.39 516.688 270.489 525 273.5C536.07 277.51 543.351 278.211 555 276.5C565.333 274.982 571.05 272.384 580 267C588.893 261.65 594.943 258.563 600 249.5C603.923 242.469 609 225.5 609 225.5C609 225.5 582.556 238.833 568.5 235.5C559.492 233.364 554.987 229.945 547.5 224.5C536.5 216.5 531.027 211.064 511.5 194.5C499.66 184.457 482.287 160.732 467.5 156C461.109 153.955 457.169 152.761 450.5 153.5C443.617 154.263 440.022 156.579 434 160C418.303 168.917 411.11 174.394 400.5 189C382.787 213.384 375.879 226.512 361.5 253C349.252 275.564 343.574 289.678 334 313.5C324.673 336.705 315.5 380.5 315.5 380.5C315.5 380.5 329.471 383.433 336 388C343.855 393.494 343.685 400.879 349.5 408.5C356.878 418.169 370.5 431.5 370.5 431.5C370.5 431.5 357.257 428.392 350.5 423C343.721 417.59 344.034 411.73 338 405.5C328.398 395.586 319.787 391.14 306 390.5Z" fill="#D9D9D9"/>
	</mask>
	<g mask="url(#mask1_199_832)">
		<path d="M294.5 495.5C298.609 492.314 308.5 484 308.5 484L304 484.5L301.5 485.5L289 486L278.5 489.5L274 493L271 499C271 499 276.136 502.93 281 501.5C286.688 499.828 289.814 499.133 294.5 495.5Z" fill="#3B887B"/>
	</g>
	<mask id="mask2_199_832" style="mask-type:alpha" maskUnits="userSpaceOnUse" x="256" y="153" width="353" height="397">
		<path d="M306 390.5C284.251 389.491 265.91 401.545 260 422.5C254.5 442 255.5 464.5 272 477C285.405 487.155 308.5 484 308.5 484C308.5 484 300.435 489.538 294.5 491C288.054 492.588 277.5 491 277.5 491C277.5 491 274.191 502.141 273.5 509.5C272.806 516.89 274 528.5 274 528.5C274 528.5 313.489 531.819 338.5 536C362.941 540.086 400.5 549.5 400.5 549.5H452.5C452.5 549.5 489.995 539.219 514.5 535C538.513 530.866 576.5 528 576.5 528C576.5 528 576.457 516.672 575.5 509.5C574.523 502.173 571.5 491 571.5 491C571.5 491 561.182 492.817 555 491C549.023 489.243 541.5 482.5 541.5 482.5C541.5 482.5 549.638 485.035 555 485C562.724 484.949 567.467 483.622 574 479.5C580.077 475.666 582.791 472.154 586.5 466C591.318 458.006 592.431 452.316 593 443C593.591 433.324 592.955 427.351 589 418.5C585.972 411.723 583.304 408.192 578 403C572.466 397.583 568.871 394.375 561.5 392C554.613 389.781 550.352 389.976 543 391C537.042 391.83 533.573 392.236 528 394.5C520.825 397.414 516.925 399.973 511.5 405.5C505.424 411.689 505.781 418.593 499 424C492.53 429.159 480 431.5 480 431.5C480 431.5 490.98 420.748 497 413C503.413 404.745 503.653 397.407 511.5 390.5C518.579 384.268 533 379.5 533 379.5C533 379.5 529.188 346.795 518.5 329.5C507.812 312.205 499.865 279.793 497 266.5C494.81 256.338 494.5 240 494.5 240C494.5 240 498.861 255.058 505.5 262C511.61 268.39 516.688 270.489 525 273.5C536.07 277.51 543.351 278.211 555 276.5C565.333 274.982 571.05 272.384 580 267C588.893 261.65 594.943 258.563 600 249.5C603.923 242.469 609 225.5 609 225.5C609 225.5 582.556 238.833 568.5 235.5C559.492 233.364 554.987 229.945 547.5 224.5C536.5 216.5 531.027 211.064 511.5 194.5C499.66 184.457 482.287 160.732 467.5 156C461.109 153.955 457.169 152.761 450.5 153.5C443.617 154.263 440.022 156.579 434 160C418.303 168.917 411.11 174.394 400.5 189C382.787 213.384 375.879 226.512 361.5 253C349.252 275.564 343.574 289.678 334 313.5C324.673 336.705 315.5 380.5 315.5 380.5C315.5 380.5 329.471 383.433 336 388C343.855 393.494 343.685 400.879 349.5 408.5C356.878 418.169 370.5 431.5 370.5 431.5C370.5 431.5 357.257 428.392 350.5 423C343.721 417.59 344.034 411.73 338 405.5C328.398 395.586 319.787 391.14 306 390.5Z" fill="#D9D9D9"/>
	</mask>
	<g mask="url(#mask2_199_832)">
		<path d="M554.5 495.22C550.391 492.035 541.5 482.5 541.5 482.5L545 484.22L547.5 485.22L560 485.72L570.5 489.22L575 492.72L578 498.72C578 498.72 572.864 502.65 568 501.22C562.312 499.548 559.186 498.853 554.5 495.22Z" fill="#3B887B"/>
	</g>
	<mask id="mask3_199_832" style="mask-type:alpha" maskUnits="userSpaceOnUse" x="256" y="153" width="353" height="397">
		<path d="M306 390.5C284.251 389.491 265.91 401.545 260 422.5C254.5 442 255.5 464.5 272 477C285.405 487.155 308.5 484 308.5 484C308.5 484 300.435 489.538 294.5 491C288.054 492.588 277.5 491 277.5 491C277.5 491 274.191 502.141 273.5 509.5C272.806 516.89 274 528.5 274 528.5C274 528.5 313.489 531.819 338.5 536C362.941 540.086 400.5 549.5 400.5 549.5H452.5C452.5 549.5 489.995 539.219 514.5 535C538.513 530.866 576.5 528 576.5 528C576.5 528 576.457 516.672 575.5 509.5C574.523 502.173 571.5 491 571.5 491C571.5 491 561.182 492.817 555 491C549.023 489.243 541.5 482.5 541.5 482.5C541.5 482.5 549.638 485.035 555 485C562.724 484.949 567.467 483.622 574 479.5C580.077 475.666 582.791 472.154 586.5 466C591.318 458.006 592.431 452.316 593 443C593.591 433.324 592.955 427.351 589 418.5C585.972 411.723 583.304 408.192 578 403C572.466 397.583 568.871 394.375 561.5 392C554.613 389.781 550.352 389.976 543 391C537.042 391.83 533.573 392.236 528 394.5C520.825 397.414 516.925 399.973 511.5 405.5C505.424 411.689 505.781 418.593 499 424C492.53 429.159 480 431.5 480 431.5C480 431.5 490.98 420.748 497 413C503.413 404.745 503.653 397.407 511.5 390.5C518.579 384.268 533 379.5 533 379.5C533 379.5 529.188 346.795 518.5 329.5C512.888 320.419 507.172 317.21 501 308.5C494.32 299.073 486 283 486 283C486 283 493.622 286.121 498 289C502.973 292.27 509.5 299 509.5 299C509.5 299 499.865 279.793 497 266.5C494.81 256.338 494.5 240 494.5 240C494.5 240 498.861 255.058 505.5 262C511.61 268.39 516.688 270.489 525 273.5C536.07 277.51 543.351 278.211 555 276.5C565.333 274.982 571.05 272.384 580 267C588.893 261.65 594.943 258.563 600 249.5C603.923 242.469 609 225.5 609 225.5C609 225.5 582.556 238.833 568.5 235.5C559.492 233.364 554.987 229.945 547.5 224.5C536.5 216.5 531.027 211.064 511.5 194.5C499.66 184.457 482.287 160.732 467.5 156C461.109 153.955 457.169 152.761 450.5 153.5C443.617 154.263 440.022 156.579 434 160C418.303 168.917 415.61 181.394 405 196C387.287 220.384 379.379 235.512 365 262C352.751 284.564 341.074 298.678 331.5 322.5C322.173 345.705 315.5 380.5 315.5 380.5C315.5 380.5 329.471 383.433 336 388C343.855 393.494 343.685 400.879 349.5 408.5C356.878 418.169 370.5 431.5 370.5 431.5C370.5 431.5 357.257 428.392 350.5 423C343.721 417.59 344.034 411.73 338 405.5C328.398 395.586 319.787 391.14 306 390.5Z" fill="#D9D9D9"/>
	</mask>
	<g mask="url(#mask3_199_832)">
		<path d="M346 361.5C335.557 363.619 307.5 370.5 307.5 370.5L311.5 380.5C311.5 380.5 315.66 384.854 320 386.5C324.082 388.049 324.226 386.611 327.5 389.5C330.223 391.903 333.533 391.446 335.5 394.5C337.441 397.514 341.147 401.932 343 405C344.68 407.782 346.5 411 346.5 411C346.5 411 356.474 408.398 363 407.5C370.94 406.407 383.5 406.5 383.5 406.5L396.5 411H407.5H448H462L468.5 408C468.5 408 479.193 407.857 486 408.5C492.296 409.095 502 411 502 411C502 411 510.818 398.938 518 392.5C524.958 386.263 536.5 378.5 536.5 378.5L536 370.5C526.042 367.181 515.958 364.819 506 361.5C506 361.5 494.186 359.035 486.5 358.5C480.072 358.052 470 358.5 470 358.5H460.5H450L414.5 358.5L392.5 358.5H378.5C378.5 358.5 369.032 358 363 358.5C356.282 359.056 352.607 360.159 346 361.5Z" fill="#3B887B"/>
	</g>
	<mask id="mask4_199_832" style="mask-type:alpha" maskUnits="userSpaceOnUse" x="311" y="358" width="226" height="53">
		<mask id="mask5_199_832" style="mask-type:alpha" maskUnits="userSpaceOnUse" x="256" y="153" width="353" height="397">
			<path d="M306 390.5C284.251 389.491 265.91 401.545 260 422.5C254.5 442 255.5 464.5 272 477C285.405 487.155 308.5 484 308.5 484C308.5 484 300.435 489.538 294.5 491C288.054 492.588 277.5 491 277.5 491C277.5 491 274.191 502.141 273.5 509.5C272.806 516.89 274 528.5 274 528.5C274 528.5 313.489 531.819 338.5 536C362.941 540.086 400.5 549.5 400.5 549.5H452.5C452.5 549.5 489.995 539.219 514.5 535C538.513 530.866 576.5 528 576.5 528C576.5 528 576.457 516.672 575.5 509.5C574.523 502.173 571.5 491 571.5 491C571.5 491 561.182 492.817 555 491C549.023 489.243 541.5 482.5 541.5 482.5C541.5 482.5 549.638 485.035 555 485C562.724 484.949 567.467 483.622 574 479.5C580.077 475.666 582.791 472.154 586.5 466C591.318 458.006 592.431 452.316 593 443C593.591 433.324 592.955 427.351 589 418.5C585.972 411.723 583.304 408.192 578 403C572.466 397.583 568.871 394.375 561.5 392C554.613 389.781 550.352 389.976 543 391C537.042 391.83 533.573 392.236 528 394.5C520.825 397.414 516.925 399.973 511.5 405.5C505.424 411.689 505.781 418.593 499 424C492.53 429.159 480 431.5 480 431.5C480 431.5 490.98 420.748 497 413C503.413 404.745 503.653 397.407 511.5 390.5C518.579 384.268 533 379.5 533 379.5C533 379.5 529.188 346.795 518.5 329.5C512.888 320.419 507.172 317.21 501 308.5C494.32 299.073 486 283 486 283C486 283 493.622 286.121 498 289C502.973 292.27 509.5 299 509.5 299C509.5 299 499.865 279.793 497 266.5C494.81 256.338 494.5 240 494.5 240C494.5 240 498.861 255.058 505.5 262C511.61 268.39 516.688 270.489 525 273.5C536.07 277.51 543.351 278.211 555 276.5C565.333 274.982 571.05 272.384 580 267C588.893 261.65 594.943 258.563 600 249.5C603.923 242.469 609 225.5 609 225.5C609 225.5 582.556 238.833 568.5 235.5C559.492 233.364 554.987 229.945 547.5 224.5C536.5 216.5 531.027 211.064 511.5 194.5C499.66 184.457 482.287 160.732 467.5 156C461.109 153.955 457.169 152.761 450.5 153.5C443.617 154.263 440.022 156.579 434 160C418.303 168.917 415.61 181.394 405 196C387.287 220.384 379.379 235.512 365 262C352.751 284.564 345.574 297.178 336 321C326.673 344.205 315.5 380.5 315.5 380.5C315.5 380.5 329.471 383.433 336 388C343.855 393.494 343.685 400.879 349.5 408.5C356.878 418.169 370.5 431.5 370.5 431.5C370.5 431.5 357.257 428.392 350.5 423C343.721 417.59 344.034 411.73 338 405.5C328.398 395.586 319.787 391.14 306 390.5Z" fill="#D9D9D9"/>
		</mask>
		<g mask="url(#mask5_199_832)">
			<path d="M346 361.5C335.557 363.619 313 368.5 313 368.5L311.5 380.5C311.5 380.5 315.66 384.854 320 386.5C324.082 388.049 324.226 386.611 327.5 389.5C330.223 391.903 333.533 391.446 335.5 394.5C337.441 397.514 341.147 401.932 343 405C344.68 407.782 346.5 411 346.5 411C346.5 411 356.474 408.398 363 407.5C370.94 406.407 383.5 406.5 383.5 406.5L396.5 411H407.5H448H462L468.5 408C468.5 408 479.193 407.857 486 408.5C492.296 409.095 502 411 502 411C502 411 510.818 398.938 518 392.5C524.958 386.263 536.5 378.5 536.5 378.5L536 370.5C526.042 367.181 515.958 364.819 506 361.5C506 361.5 494.186 359.035 486.5 358.5C480.072 358.052 470 358.5 470 358.5H460.5H450L414.5 358.5L392.5 358.5H378.5C378.5 358.5 369.032 358 363 358.5C356.282 359.056 352.607 360.159 346 361.5Z" fill="#A34141"/>
		</g>
	</mask>
	<g mask="url(#mask4_199_832)">
		<path d="M372.5 416.5L364 355H485L478 416.5H372.5Z" fill="#253C3B"/>
	</g>
	<rect x="379" y="343" width="91" height="75" rx="16" fill="#253C3B"/>
	<rect x="388" y="355" width="72" height="51" rx="8" fill="#EBDECD"/>
	<rect x="402" y="367" width="44" height="26" rx="6" fill="#253C3B"/>
	<mask id="mask6_199_832" style="mask-type:alpha" maskUnits="userSpaceOnUse" x="257" y="152" width="353" height="397">
		<path d="M306.002 389.22C284.253 388.211 265.912 400.266 260.002 421.22C254.502 440.72 255.502 463.22 272.002 475.72C285.407 485.876 308.502 482.72 308.502 482.72C308.502 482.72 300.437 488.258 294.502 489.72C288.056 491.309 277.502 489.72 277.502 489.72C277.502 489.72 274.193 500.861 273.502 508.22C272.809 515.61 274.002 527.22 274.002 527.22C274.002 527.22 313.491 530.539 338.502 534.72C362.943 538.806 400.502 548.22 400.502 548.22H452.502C452.502 548.22 489.997 537.939 514.502 533.72C538.515 529.586 576.502 526.72 576.502 526.72C576.502 526.72 576.459 515.392 575.502 508.22C574.525 500.894 571.502 489.72 571.502 489.72C571.502 489.72 561.184 491.537 555.002 489.72C549.025 487.964 541.502 481.22 541.502 481.22C541.502 481.22 549.641 483.756 555.002 483.72C562.727 483.669 567.469 482.342 574.002 478.22C580.079 474.386 582.793 470.874 586.502 464.72C591.321 456.726 592.433 451.037 593.002 441.72C593.593 432.044 592.958 426.071 589.002 417.22C585.974 410.444 583.306 406.913 578.002 401.72C572.468 396.303 568.873 393.095 561.502 390.72C554.616 388.501 550.354 388.696 543.002 389.72C537.045 390.55 533.575 390.957 528.002 393.22C520.827 396.135 516.927 398.694 511.502 404.22C505.426 410.41 505.783 417.313 499.002 422.72C492.532 427.879 480.002 430.22 480.002 430.22C480.002 430.22 490.982 419.468 497.002 411.72C503.416 403.466 503.656 396.127 511.502 389.22C518.581 382.989 533.002 378.22 533.002 378.22C533.002 378.22 529.19 345.515 518.502 328.22C512.89 319.139 507.174 315.931 501.002 307.22C494.322 297.793 486.002 281.72 486.002 281.72C486.002 281.72 493.624 284.842 498.002 287.72C502.975 290.99 509.502 297.72 509.502 297.72C509.502 297.72 499.867 278.514 497.002 265.22C494.812 255.059 494.5 241 494.5 241C494.5 241 498.361 254.558 505 261.5C511.11 267.89 512 268.5 525 273.5C535.989 277.727 543.351 278.211 555 276.5C565.333 274.982 572.05 271.884 581 266.5C589.893 261.15 595.443 257.563 600.5 248.5C604.423 241.469 609.002 224.22 609.002 224.22C609.002 224.22 582.558 237.554 568.502 234.22C559.494 232.084 554.99 228.666 547.502 223.22C536.502 215.22 531.029 209.784 511.502 193.22C499.663 183.177 482.289 159.452 467.502 154.72C461.111 152.675 457.172 151.481 450.502 152.22C443.619 152.983 440.024 155.299 434.002 158.72C418.305 167.638 415.612 180.114 405.002 194.72C387.289 219.105 379.381 234.233 365.002 260.72C352.754 283.284 345.576 295.899 336.002 319.72C326.675 342.926 315.502 379.22 315.502 379.22C315.502 379.22 329.473 382.154 336.002 386.72C343.857 392.214 343.687 399.6 349.502 407.22C356.88 416.89 370.502 430.22 370.502 430.22C370.502 430.22 357.259 427.112 350.502 421.72C343.723 416.31 344.036 410.451 338.002 404.22C328.401 394.306 319.789 389.86 306.002 389.22Z" fill="#D9D9D9"/>
	</mask>
	<g mask="url(#mask6_199_832)">
		<path d="M567.5 282L593.5 258C593.5 258 576.012 267.879 568.5 269C559.019 270.415 550 268.602 544 267.5C532.643 265.413 518.5 258 508.5 247.5C500.948 239.57 496.5 215.5 496.5 215.5C496.5 215.5 493 227.5 494.5 240C495.349 247.076 496.5 252 496.5 252L504.5 267.5L532 283L567.5 282Z" fill="#3B887B"/>
	</g>
	<path d="M296.5 508.5C296.5 508.5 308.878 512.343 317 514C359.003 522.57 383.132 500.758 426 501C466.93 501.231 489.731 521.331 530 514C538.713 512.414 552 508.5 552 508.5" stroke="#253C3B" stroke-width="8" stroke-linecap="round"/>
	<circle cx="297" cy="435" r="30" fill="#253C3B"/>
	<path d="M283 421C283 421 286.1 418.261 288.911 417.192C293.35 415.504 302 416.104 302 416.104" stroke="#EBDECD" stroke-width="7" stroke-linecap="round"/>
	<circle cx="552" cy="435" r="30" fill="#253C3B"/>
	<path d="M540 421C540 421 543.1 418.261 545.911 417.192C550.35 415.504 559 416.104 559 416.104" stroke="#EBDECD" stroke-width="7" stroke-linecap="round"/>
	<ellipse cx="390.348" cy="464.278" rx="10.5" ry="5.5" transform="rotate(44.4365 390.348 464.278)" fill="#253C3B"/>
	<ellipse cx="458.348" cy="464.278" rx="10.5" ry="5.5" transform="rotate(-44.44 458.348 464.278)" fill="#253C3B"/>
	<path d="M390.188 662.125L406.438 649.938L425.266 661.266C425.37 662.776 425.422 664.039 425.422 665.055C425.422 669.326 424.25 672.971 421.906 675.992C419.562 679.013 414.315 682.828 406.164 687.438C402.492 689.521 399.901 691.201 398.391 692.477C396.906 693.727 395.565 695.263 394.367 697.086C397.544 695.68 400.305 694.703 402.648 694.156C405.018 693.583 407.349 693.297 409.641 693.297C411.594 693.297 413.586 693.44 415.617 693.727C417.674 694.013 419.237 694.299 420.305 694.586L426.359 696.539L419.562 704C415.5 702.594 412.727 701.747 411.242 701.461C408.898 700.966 406.685 700.719 404.602 700.719C400.643 700.719 396.333 701.617 391.672 703.414C390.682 703.805 390.109 704 389.953 704C389.797 704 389.68 703.948 389.602 703.844C389.497 703.714 389.445 703.518 389.445 703.258C389.445 702.008 389.875 700.484 390.734 698.688C391.88 696.24 393.534 693.831 395.695 691.461C397.232 689.742 399.732 687.477 403.195 684.664C406.659 681.852 409.055 679.716 410.383 678.258C412.232 676.201 413.651 674.052 414.641 671.812C415.656 669.573 416.164 667.19 416.164 664.664C416.164 660.888 414.758 657.776 411.945 655.328L395.734 667.75L390.188 662.125ZM448 649.938C453.911 651.969 458.508 655.224 461.789 659.703C465.07 664.156 466.711 669.404 466.711 675.445C466.711 681.383 465.174 686.786 462.102 691.656C459.055 696.5 454.914 700.615 449.68 704C445.956 703.115 442.57 701.448 439.523 699C436.503 696.552 434.185 693.505 432.57 689.859C430.982 686.214 430.188 682.424 430.188 678.492C430.188 672.867 431.815 667.398 435.07 662.086C438.326 656.773 442.635 652.724 448 649.938ZM441.203 657.125C437.609 661.214 435.812 666.135 435.812 671.891C435.812 675.953 436.685 679.781 438.43 683.375C440.174 686.969 442.661 689.938 445.891 692.281C449.146 694.625 452.466 696.044 455.852 696.539C457.727 693.961 459.055 691.552 459.836 689.312C460.643 687.047 461.047 684.547 461.047 681.812C461.047 678.062 460.279 674.495 458.742 671.109C457.232 667.698 454.953 664.82 451.906 662.477C448.859 660.107 445.292 658.323 441.203 657.125Z" fill="#253C3B"/>
	<path d="M400.75 30.4552C417.922 20.5411 439.078 20.5411 456.25 30.4552L759.342 205.445C776.514 215.36 787.092 233.682 787.092 253.51V603.49C787.092 623.318 776.514 641.641 759.342 651.555L456.25 826.545C439.078 836.459 417.922 836.459 400.75 826.545L97.6581 651.555C80.4864 641.641 69.9081 623.318 69.9081 603.49V253.51C69.9081 233.682 80.4864 215.36 97.6581 205.445L400.75 30.4552Z" stroke="#EBDECD" stroke-width="25"/>
	<path d="M424 265L432.103 286.897L454 295L432.103 303.103L424 325L415.897 303.103L394 295L415.897 286.897L424 265Z" fill="#253C3B"/>
	<path d="M240 222L256.205 265.795L300 282L256.205 298.205L240 342L223.795 298.205L180 282L223.795 265.795L240 222Z" fill="#EBDECD"/>
	<path d="M324 146L335.074 175.926L365 187L335.074 198.074L324 228L312.926 198.074L283 187L312.926 175.926L324 146Z" fill="#EBDECD"/>
	<path d="M671 268L682.074 297.926L712 309L682.074 320.074L671 350L659.926 320.074L630 309L659.926 297.926L671 268Z" fill="#EBDECD"/>
	<path d="M137.5 361L139.798 391.202L170 393.5L139.798 395.798L137.5 426L135.202 395.798L105 393.5L135.202 391.202L137.5 361Z" fill="#EBDECD"/>
	<path d="M170.5 587L172.798 617.202L203 619.5L172.798 621.798L170.5 652L168.202 621.798L138 619.5L168.202 617.202L170.5 587Z" fill="#EBDECD"/>
	<path d="M400.5 69L402.798 99.2019L433 101.5L402.798 103.798L400.5 134L398.202 103.798L368 101.5L398.202 99.2019L400.5 69Z" fill="#EBDECD"/>
	<path d="M679.5 406L681.798 436.202L712 438.5L681.798 440.798L679.5 471L677.202 440.798L647 438.5L677.202 436.202L679.5 406Z" fill="#EBDECD"/>
	<path d="M697.5 588L699.798 618.202L730 620.5L699.798 622.798L697.5 653L695.202 622.798L665 620.5L695.202 618.202L697.5 588Z" fill="#EBDECD"/>
	<circle cx="215.5" cy="434.5" r="6.5" fill="#EBDECD"/>
	<circle cx="136.5" cy="265.5" r="6.5" fill="#EBDECD"/>
	<circle cx="129.5" cy="521.5" r="6.5" fill="#EBDECD"/>
	<circle cx="575.5" cy="318.5" r="6.5" fill="#EBDECD"/>
	<circle cx="545.5" cy="152.5" r="6.5" fill="#EBDECD"/>
	<circle cx="736.5" cy="547.5" r="6.5" fill="#EBDECD"/>
	<circle cx="712.5" cy="222.5" r="6.5" fill="#EBDECD"/>
</svg>
