<svg width="75" height="75" viewBox="0 0 75 75" fill="none" xmlns="http://www.w3.org/2000/svg">
<path d="M50.2716 41.8929C51.2198 40.7679 51.0644 39.0804 49.9287 38.1161C48.793 37.1786 47.1028 37.3393 46.1573 38.4643L34.5055 52.4464L28.535 47.3037C27.4127 46.3394 25.7225 46.4733 24.7555 47.5715C23.7912 48.6965 23.917 50.3841 25.0367 51.3484L33.0724 58.2858C33.6188 58.7411 34.3259 58.9822 35.0411 58.9286C35.759 58.8483 36.4207 58.5269 36.8787 57.9644L50.2716 41.8929Z" fill="#232322"/>
<path fill-rule="evenodd" clip-rule="evenodd" d="M24.1071 2.67857C24.1071 1.20536 22.9071 0 21.4286 0C19.95 0 18.75 1.20536 18.75 2.67857V5.35714H13.3929C5.99732 5.35714 0 11.3571 0 18.75V61.6071C0 69 5.99732 75 13.3929 75H61.6071C69.0027 75 75 69 75 61.6071V18.75C75 11.3571 69.0027 5.35714 61.6071 5.35714H56.25V2.67857C56.25 1.20536 55.05 0 53.5714 0C52.0929 0 50.8929 1.20536 50.8929 2.67857V5.35714H24.1071V2.67857ZM13.3929 10.7143H18.75V13.3929C18.75 14.8661 19.95 16.0714 21.4286 16.0714C22.9071 16.0714 24.1071 14.8661 24.1071 13.3929V10.7143H50.8929V13.3929C50.8929 14.8661 52.0929 16.0714 53.5714 16.0714C55.05 16.0714 56.25 14.8661 56.25 13.3929V10.7143H61.6071C66.0455 10.7143 69.6429 14.3036 69.6429 18.75V24.1071H5.35714V18.75C5.35714 14.3036 8.95446 10.7143 13.3929 10.7143ZM5.35714 29.4643H69.6429V61.6071C69.6429 66.0536 66.0455 69.6429 61.6071 69.6429H13.3929C8.95446 69.6429 5.35714 66.0536 5.35714 61.6071V29.4643Z" fill="#232322"/>
</svg>
