<svg width="75" height="75" viewBox="0 0 75 75" fill="none" xmlns="http://www.w3.org/2000/svg">
	<path fill-rule="evenodd" clip-rule="evenodd" d="M22.1165 72.3214C22.1165 70.8482 23.2917 69.6428 24.7398 69.6428H50.9728C52.4209 69.6428 53.5961 70.8482 53.5961 72.3214C53.5961 73.7946 52.4209 75 50.9728 75H24.7398C23.2917 75 22.1165 73.7946 22.1165 72.3214Z" fill="#232322"/>
	<path fill-rule="evenodd" clip-rule="evenodd" d="M37.8564 5.35715C24.6611 5.35715 14.2466 14.5742 14.2466 28.8697C14.2466 34.2751 16.5708 39.2518 19.446 44.1428C20.8416 46.5268 22.3474 48.8572 23.7325 51.2411C25.0546 53.5179 26.2692 55.9018 26.8988 58.259C26.9487 58.4465 27.1428 58.875 27.3631 58.9286H48.3496C48.5673 58.875 48.7641 58.4465 48.8139 58.259C49.4435 55.9018 50.6581 53.5179 51.9803 51.2411C53.3654 48.8572 54.8711 46.5268 56.2667 44.1428C59.1419 39.2518 61.4661 34.2751 61.4661 28.8697C61.4661 14.5742 51.0516 5.35715 37.8564 5.35715ZM9 28.8697C9 11.309 22.0746 0 37.8564 0C53.6382 0 66.7127 11.309 66.7127 28.8697C66.7127 35.8126 63.7327 41.8554 60.7683 46.9018C59.3754 49.2858 57.8748 51.5894 56.495 53.9733C55.2253 56.1697 54.315 58.018 53.8769 59.6787C53.2893 61.8751 51.3297 64.2858 48.3496 64.2858H27.3631C24.3831 64.2858 22.4235 61.8751 21.8359 59.6787C21.3978 58.018 20.4874 56.1697 19.2177 53.9733C17.8379 51.5894 16.3374 49.2858 14.9444 46.9018C11.9801 41.8554 9 35.8126 9 28.8697Z" fill="#232322"/>
	<path fill-rule="evenodd" clip-rule="evenodd" d="M29.9865 37.5C31.4345 37.5 32.6098 38.7 32.6098 40.1786C32.6098 43.125 34.9576 45.5357 37.8564 45.5357C40.7551 45.5357 43.103 43.125 43.103 40.1786C43.103 38.7 44.2782 37.5 45.7263 37.5C47.1744 37.5 48.3496 38.7 48.3496 40.1786C48.3496 46.0982 43.6513 50.8929 37.8564 50.8929C32.0615 50.8929 27.3632 46.0982 27.3632 40.1786C27.3632 38.7 28.5384 37.5 29.9865 37.5Z" fill="#232322"/>
</svg>
