<svg width="83" height="75" viewBox="0 0 83 75" fill="none" xmlns="http://www.w3.org/2000/svg">
<path fill-rule="evenodd" clip-rule="evenodd" d="M72.5613 10.4861C66.0237 3.91112 55.4219 3.91112 48.8842 10.4861L43.4588 15.9388C42.9387 16.461 42.2332 16.7527 41.5 16.7527C40.7668 16.7527 40.0614 16.461 39.544 15.9388L34.1158 10.4861C27.5781 3.91112 16.9763 3.91112 10.4387 10.4861C3.89829 17.0584 3.89829 27.7194 10.4387 34.2944C10.4636 34.3194 10.4913 34.3473 10.5162 34.3723L41.5 68.1251L72.4838 34.3723C72.5087 34.3473 72.5364 34.3194 72.5613 34.2944C79.1017 27.7194 79.1017 17.0584 72.5613 10.4861ZM44.9695 6.55834C53.6679 -2.18611 67.7751 -2.18611 76.4762 6.55834C85.1608 15.2889 85.1745 29.4333 76.5176 38.1778L43.5335 74.1055C43.0106 74.6749 42.2719 75 41.5 75C40.7281 75 39.9894 74.6749 39.4665 74.1055L6.48238 38.1778C-2.17452 29.4333 -2.16081 15.2889 6.52375 6.55834C15.2249 -2.18611 29.3321 -2.18611 38.0305 6.55834L41.5 10.0445L44.9695 6.55834Z" fill="#232322"/>
</svg>
