<svg width="75" height="75" viewBox="0 0 75 75" fill="none" xmlns="http://www.w3.org/2000/svg">
<path d="M5.35714 37.5C5.35714 19.7411 19.7491 5.35714 37.5 5.35714C55.2509 5.35714 69.6429 19.7411 69.6429 37.5C69.6429 55.2589 55.2509 69.6429 37.5 69.6429C36.0214 69.6429 34.8214 70.8482 34.8214 72.3214C34.8214 73.7946 36.0214 75 37.5 75C58.2107 75 75 58.2054 75 37.5C75 16.7946 58.2107 0 37.5 0C16.7893 0 0 16.7946 0 37.5C0 38.9732 1.2 40.1786 2.67857 40.1786C4.15714 40.1786 5.35714 38.9732 5.35714 37.5Z" fill="#232322"/>
<path d="M39.2141 44.9197C39.8248 44.4107 40.1784 43.6607 40.1784 42.8571V18.75C40.1784 17.2768 38.9784 16.0714 37.4998 16.0714C36.0212 16.0714 34.8212 17.2768 34.8212 18.75V41.5983L19.714 54.1874C18.5783 55.1517 18.423 56.8393 19.3712 57.9643C20.3167 59.0893 22.007 59.25 23.1427 58.3125L39.2141 44.9197Z" fill="#232322"/>
</svg>
