<svg width="75" height="75" viewBox="0 0 75 75" fill="none" xmlns="http://www.w3.org/2000/svg">
<path fill-rule="evenodd" clip-rule="evenodd" d="M47.6599 4.6771C53.8822 -1.55903 63.9749 -1.55903 70.1972 4.6771C76.4222 10.9105 76.4222 21.0188 70.1972 27.2549L27.8946 69.6333H72.3214C73.8 69.6333 75 70.8327 75 72.3166C75 73.7979 73.8 75 72.3214 75H2.67857C1.2 75 0 73.7979 0 72.3166V53.5331C0 52.822 0.28133 52.1377 0.784901 51.6359L47.6599 4.6771ZM20.3196 69.6333L56.4804 33.4079L41.5179 18.4187L5.35714 54.644V69.6333H20.3196ZM45.3054 14.6244L60.2679 29.6136L66.4099 23.4606C70.5403 19.3202 70.5403 12.6091 66.4099 8.47137C62.2769 4.33095 55.5803 4.33095 51.4472 8.47137L45.3054 14.6244Z" fill="#232322"/>
</svg>
